<?xml version="1.0" encoding="UTF-8" standalone="no"?>
<!DOCTYPE svg PUBLIC "-//W3C//DTD SVG 1.1//EN"
 "http://www.w3.org/Graphics/SVG/1.1/DTD/svg11.dtd">
<!-- Generated by graphviz version 2.38.0 (20140413.2041)
 -->
<!-- Title: Tree Pages: 1 -->
<svg width="558pt" height="433pt"
 viewBox="0.00 0.00 558.00 433.00" xmlns="http://www.w3.org/2000/svg" xmlns:xlink="http://www.w3.org/1999/xlink">
<g id="graph0" class="graph" transform="scale(1 1) rotate(0) translate(4 429)">
<title>Tree</title>
<polygon fill="white" stroke="none" points="-4,4 -4,-429 554,-429 554,4 -4,4"/>
<!-- 0 -->
<g id="node1" class="node"><title>0</title>
<path fill="#ffffff" stroke="black" d="M256,-425C256,-425 137,-425 137,-425 131,-425 125,-419 125,-413 125,-413 125,-354 125,-354 125,-348 131,-342 137,-342 137,-342 256,-342 256,-342 262,-342 268,-348 268,-354 268,-354 268,-413 268,-413 268,-419 262,-425 256,-425"/>
<text text-anchor="start" x="133" y="-409.8" font-family="Helvetica,sans-Serif" font-size="14.00">PetalWidthCm ≤ 0.8</text>
<text text-anchor="start" x="146.5" y="-394.8" font-family="Helvetica,sans-Serif" font-size="14.00">entropy = 1.585</text>
<text text-anchor="start" x="149" y="-379.8" font-family="Helvetica,sans-Serif" font-size="14.00">samples = 150</text>
<text text-anchor="start" x="136" y="-364.8" font-family="Helvetica,sans-Serif" font-size="14.00">value = [50, 50, 50]</text>
<text text-anchor="start" x="167" y="-349.8" font-family="Helvetica,sans-Serif" font-size="14.00">class = S</text>
</g>
<!-- 1 -->
<g id="node2" class="node"><title>1</title>
<path fill="#e58139" stroke="black" d="M168,-298.5C168,-298.5 71,-298.5 71,-298.5 65,-298.5 59,-292.5 59,-286.5 59,-286.5 59,-242.5 59,-242.5 59,-236.5 65,-230.5 71,-230.5 71,-230.5 168,-230.5 168,-230.5 174,-230.5 180,-236.5 180,-242.5 180,-242.5 180,-286.5 180,-286.5 180,-292.5 174,-298.5 168,-298.5"/>
<text text-anchor="start" x="77.5" y="-283.3" font-family="Helvetica,sans-Serif" font-size="14.00">entropy = 0.0</text>
<text text-anchor="start" x="76" y="-268.3" font-family="Helvetica,sans-Serif" font-size="14.00">samples = 50</text>
<text text-anchor="start" x="67" y="-253.3" font-family="Helvetica,sans-Serif" font-size="14.00">value = [50, 0, 0]</text>
<text text-anchor="start" x="90" y="-238.3" font-family="Helvetica,sans-Serif" font-size="14.00">class = S</text>
</g>
<!-- 0&#45;&gt;1 -->
<g id="edge1" class="edge"><title>0&#45;&gt;1</title>
<path fill="none" stroke="black" d="M169.785,-341.907C162.378,-330.652 154.327,-318.418 146.882,-307.106"/>
<polygon fill="black" stroke="black" points="149.749,-305.096 141.328,-298.667 143.902,-308.944 149.749,-305.096"/>
<text text-anchor="middle" x="136.279" y="-319.452" font-family="Helvetica,sans-Serif" font-size="14.00">True</text>
</g>
<!-- 2 -->
<g id="node3" class="node"><title>2</title>
<path fill="#ffffff" stroke="black" d="M338.5,-306C338.5,-306 210.5,-306 210.5,-306 204.5,-306 198.5,-300 198.5,-294 198.5,-294 198.5,-235 198.5,-235 198.5,-229 204.5,-223 210.5,-223 210.5,-223 338.5,-223 338.5,-223 344.5,-223 350.5,-229 350.5,-235 350.5,-235 350.5,-294 350.5,-294 350.5,-300 344.5,-306 338.5,-306"/>
<text text-anchor="start" x="206.5" y="-290.8" font-family="Helvetica,sans-Serif" font-size="14.00">PetalWidthCm ≤ 1.75</text>
<text text-anchor="start" x="232.5" y="-275.8" font-family="Helvetica,sans-Serif" font-size="14.00">entropy = 1.0</text>
<text text-anchor="start" x="227" y="-260.8" font-family="Helvetica,sans-Serif" font-size="14.00">samples = 100</text>
<text text-anchor="start" x="218" y="-245.8" font-family="Helvetica,sans-Serif" font-size="14.00">value = [0, 50, 50]</text>
<text text-anchor="start" x="245.5" y="-230.8" font-family="Helvetica,sans-Serif" font-size="14.00">class = p</text>
</g>
<!-- 0&#45;&gt;2 -->
<g id="edge2" class="edge"><title>0&#45;&gt;2</title>
<path fill="none" stroke="black" d="M223.562,-341.907C229.43,-333.105 235.698,-323.703 241.759,-314.612"/>
<polygon fill="black" stroke="black" points="244.851,-316.283 247.486,-306.021 239.027,-312.4 244.851,-316.283"/>
<text text-anchor="middle" x="252.389" y="-326.835" font-family="Helvetica,sans-Serif" font-size="14.00">False</text>
</g>
<!-- 3 -->
<g id="node4" class="node"><title>3</title>
<path fill="#4de88e" stroke="black" d="M253.5,-187C253.5,-187 119.5,-187 119.5,-187 113.5,-187 107.5,-181 107.5,-175 107.5,-175 107.5,-116 107.5,-116 107.5,-110 113.5,-104 119.5,-104 119.5,-104 253.5,-104 253.5,-104 259.5,-104 265.5,-110 265.5,-116 265.5,-116 265.5,-175 265.5,-175 265.5,-181 259.5,-187 253.5,-187"/>
<text text-anchor="start" x="115.5" y="-171.8" font-family="Helvetica,sans-Serif" font-size="14.00">PetalLengthCm ≤ 4.95</text>
<text text-anchor="start" x="136.5" y="-156.8" font-family="Helvetica,sans-Serif" font-size="14.00">entropy = 0.445</text>
<text text-anchor="start" x="143" y="-141.8" font-family="Helvetica,sans-Serif" font-size="14.00">samples = 54</text>
<text text-anchor="start" x="134" y="-126.8" font-family="Helvetica,sans-Serif" font-size="14.00">value = [0, 49, 5]</text>
<text text-anchor="start" x="157.5" y="-111.8" font-family="Helvetica,sans-Serif" font-size="14.00">class = p</text>
</g>
<!-- 2&#45;&gt;3 -->
<g id="edge3" class="edge"><title>2&#45;&gt;3</title>
<path fill="none" stroke="black" d="M243.969,-222.907C237.211,-213.923 229.985,-204.315 223.016,-195.05"/>
<polygon fill="black" stroke="black" points="225.785,-192.909 216.977,-187.021 220.191,-197.116 225.785,-192.909"/>
</g>
<!-- 6 -->
<g id="node7" class="node"><title>6</title>
<path fill="#843de6" stroke="black" d="M429.5,-187C429.5,-187 295.5,-187 295.5,-187 289.5,-187 283.5,-181 283.5,-175 283.5,-175 283.5,-116 283.5,-116 283.5,-110 289.5,-104 295.5,-104 295.5,-104 429.5,-104 429.5,-104 435.5,-104 441.5,-110 441.5,-116 441.5,-116 441.5,-175 441.5,-175 441.5,-181 435.5,-187 429.5,-187"/>
<text text-anchor="start" x="291.5" y="-171.8" font-family="Helvetica,sans-Serif" font-size="14.00">PetalLengthCm ≤ 4.85</text>
<text text-anchor="start" x="312.5" y="-156.8" font-family="Helvetica,sans-Serif" font-size="14.00">entropy = 0.151</text>
<text text-anchor="start" x="319" y="-141.8" font-family="Helvetica,sans-Serif" font-size="14.00">samples = 46</text>
<text text-anchor="start" x="310" y="-126.8" font-family="Helvetica,sans-Serif" font-size="14.00">value = [0, 1, 45]</text>
<text text-anchor="start" x="333.5" y="-111.8" font-family="Helvetica,sans-Serif" font-size="14.00">class = e</text>
</g>
<!-- 2&#45;&gt;6 -->
<g id="edge6" class="edge"><title>2&#45;&gt;6</title>
<path fill="none" stroke="black" d="M305.031,-222.907C311.789,-213.923 319.015,-204.315 325.984,-195.05"/>
<polygon fill="black" stroke="black" points="328.809,-197.116 332.023,-187.021 323.215,-192.909 328.809,-197.116"/>
</g>
<!-- 4 -->
<g id="node5" class="node"><title>4</title>
<path fill="#3de684" stroke="black" d="M109,-68C109,-68 12,-68 12,-68 6,-68 0,-62 0,-56 0,-56 0,-12 0,-12 0,-6 6,-0 12,-0 12,-0 109,-0 109,-0 115,-0 121,-6 121,-12 121,-12 121,-56 121,-56 121,-62 115,-68 109,-68"/>
<text text-anchor="start" x="10.5" y="-52.8" font-family="Helvetica,sans-Serif" font-size="14.00">entropy = 0.146</text>
<text text-anchor="start" x="17" y="-37.8" font-family="Helvetica,sans-Serif" font-size="14.00">samples = 48</text>
<text text-anchor="start" x="8" y="-22.8" font-family="Helvetica,sans-Serif" font-size="14.00">value = [0, 47, 1]</text>
<text text-anchor="start" x="31.5" y="-7.8" font-family="Helvetica,sans-Serif" font-size="14.00">class = p</text>
</g>
<!-- 3&#45;&gt;4 -->
<g id="edge4" class="edge"><title>3&#45;&gt;4</title>
<path fill="none" stroke="black" d="M139.582,-103.726C128.772,-94.3318 117.285,-84.349 106.514,-74.9883"/>
<polygon fill="black" stroke="black" points="108.661,-72.2174 98.8173,-68.2996 104.07,-77.501 108.661,-72.2174"/>
</g>
<!-- 5 -->
<g id="node6" class="node"><title>5</title>
<path fill="#c09cf2" stroke="black" d="M243.5,-68C243.5,-68 151.5,-68 151.5,-68 145.5,-68 139.5,-62 139.5,-56 139.5,-56 139.5,-12 139.5,-12 139.5,-6 145.5,-0 151.5,-0 151.5,-0 243.5,-0 243.5,-0 249.5,-0 255.5,-6 255.5,-12 255.5,-12 255.5,-56 255.5,-56 255.5,-62 249.5,-68 243.5,-68"/>
<text text-anchor="start" x="147.5" y="-52.8" font-family="Helvetica,sans-Serif" font-size="14.00">entropy = 0.918</text>
<text text-anchor="start" x="158" y="-37.8" font-family="Helvetica,sans-Serif" font-size="14.00">samples = 6</text>
<text text-anchor="start" x="149" y="-22.8" font-family="Helvetica,sans-Serif" font-size="14.00">value = [0, 2, 4]</text>
<text text-anchor="start" x="168.5" y="-7.8" font-family="Helvetica,sans-Serif" font-size="14.00">class = e</text>
</g>
<!-- 3&#45;&gt;5 -->
<g id="edge5" class="edge"><title>3&#45;&gt;5</title>
<path fill="none" stroke="black" d="M190.596,-103.726C191.43,-95.4263 192.31,-86.6671 193.152,-78.2834"/>
<polygon fill="black" stroke="black" points="196.638,-78.5994 194.155,-68.2996 189.673,-77.8997 196.638,-78.5994"/>
</g>
<!-- 7 -->
<g id="node8" class="node"><title>7</title>
<path fill="#c09cf2" stroke="black" d="M398.5,-68C398.5,-68 306.5,-68 306.5,-68 300.5,-68 294.5,-62 294.5,-56 294.5,-56 294.5,-12 294.5,-12 294.5,-6 300.5,-0 306.5,-0 306.5,-0 398.5,-0 398.5,-0 404.5,-0 410.5,-6 410.5,-12 410.5,-12 410.5,-56 410.5,-56 410.5,-62 404.5,-68 398.5,-68"/>
<text text-anchor="start" x="302.5" y="-52.8" font-family="Helvetica,sans-Serif" font-size="14.00">entropy = 0.918</text>
<text text-anchor="start" x="313" y="-37.8" font-family="Helvetica,sans-Serif" font-size="14.00">samples = 3</text>
<text text-anchor="start" x="304" y="-22.8" font-family="Helvetica,sans-Serif" font-size="14.00">value = [0, 1, 2]</text>
<text text-anchor="start" x="323.5" y="-7.8" font-family="Helvetica,sans-Serif" font-size="14.00">class = e</text>
</g>
<!-- 6&#45;&gt;7 -->
<g id="edge7" class="edge"><title>6&#45;&gt;7</title>
<path fill="none" stroke="black" d="M358.776,-103.726C358.018,-95.4263 357.218,-86.6671 356.453,-78.2834"/>
<polygon fill="black" stroke="black" points="359.936,-77.9398 355.541,-68.2996 352.965,-78.5765 359.936,-77.9398"/>
</g>
<!-- 8 -->
<g id="node9" class="node"><title>8</title>
<path fill="#8139e5" stroke="black" d="M538,-68C538,-68 441,-68 441,-68 435,-68 429,-62 429,-56 429,-56 429,-12 429,-12 429,-6 435,-0 441,-0 441,-0 538,-0 538,-0 544,-0 550,-6 550,-12 550,-12 550,-56 550,-56 550,-62 544,-68 538,-68"/>
<text text-anchor="start" x="447.5" y="-52.8" font-family="Helvetica,sans-Serif" font-size="14.00">entropy = 0.0</text>
<text text-anchor="start" x="446" y="-37.8" font-family="Helvetica,sans-Serif" font-size="14.00">samples = 43</text>
<text text-anchor="start" x="437" y="-22.8" font-family="Helvetica,sans-Serif" font-size="14.00">value = [0, 0, 43]</text>
<text text-anchor="start" x="460.5" y="-7.8" font-family="Helvetica,sans-Serif" font-size="14.00">class = e</text>
</g>
<!-- 6&#45;&gt;8 -->
<g id="edge8" class="edge"><title>6&#45;&gt;8</title>
<path fill="none" stroke="black" d="M409.79,-103.726C420.686,-94.3318 432.264,-84.349 443.121,-74.9883"/>
<polygon fill="black" stroke="black" points="445.59,-77.4804 450.879,-68.2996 441.019,-72.1789 445.59,-77.4804"/>
</g>
</g>
</svg>
